<svg xmlns="http://www.w3.org/2000/svg" width="256" height="256" viewBox="0 0 256 256">
  <!-- Background -->
  <circle cx="128" cy="128" r="120" fill="#1b1a17"/>

  <!-- Vine stem as filled shape — left edge and right edge of the stroke -->
  <path d="
    M55 235
    C55 195, 55 160, 55 145
    C55 100, 90 68, 140 55
    C158 50, 178 38, 193 38
    C208 38, 216 48, 213 60
    C210 72, 198 80, 185 80
    C175 80, 172 70, 176 62
    C179 56, 186 56, 188 60

    L182 65
    C181 63, 178 64, 177 67
    C174 76, 180 84, 185 72
    C196 73, 205 66, 207 58
    C209 50, 203 44, 193 44
    C180 44, 162 55, 144 60
    C96 75, 65 105, 65 145
    C65 160, 65 195, 65 235
    Z"
    fill="#5cb896"/>

  <!-- Leaf — filled shape -->
  <path d="M78 138 C100 116, 138 104, 155 106 C140 128, 104 142, 78 138 Z"
        fill="#5cb896" fill-opacity="0.45"/>
</svg>
